<svg xmlns="http://www.w3.org/2000/svg" xmlns:xlink="http://www.w3.org/1999/xlink" viewBox="0 0 100 125" version="1.1" xml:space="preserve" style="" x="0px" y="0px" fill-rule="evenodd" clip-rule="evenodd" stroke-linejoin="round" stroke-miterlimit="1.41421"><g transform="matrix(1,0,0,1,-0.787095,4.71986)"><path d="M37.416,79.468C36.832,79.34 36.258,79.164 35.703,78.942C33.997,78.262 32.454,77.152 31.292,75.727C30.606,74.886 30.057,73.934 29.674,72.919C29.258,71.817 29.038,70.643 29.024,69.465C29.009,68.165 29.245,66.864 29.718,65.654C30.068,64.76 30.546,63.918 31.133,63.16C31.396,62.821 31.681,62.502 31.982,62.197L42.699,51.479L42.699,17.389L42.244,17.389C42.145,17.386 42.12,17.388 42.021,17.373C41.91,17.356 41.801,17.327 41.696,17.286C41.275,17.12 40.945,16.764 40.811,16.332C40.766,16.186 40.75,16.041 40.744,15.889L40.744,7.452C40.748,7.353 40.746,7.327 40.761,7.229C40.778,7.118 40.807,7.009 40.848,6.904C41.014,6.483 41.37,6.152 41.802,6.019C41.948,5.974 42.093,5.958 42.244,5.952C49.551,5.952 56.862,5.683 64.163,5.956C64.262,5.968 64.287,5.968 64.385,5.99C64.494,6.015 64.601,6.052 64.702,6.101C65.075,6.28 65.362,6.614 65.484,7.01C65.529,7.155 65.545,7.301 65.551,7.452L65.551,10.84C67.422,10.852 69.293,10.886 71.163,10.956C71.262,10.968 71.287,10.968 71.385,10.99C71.494,11.015 71.601,11.052 71.702,11.101C72.075,11.28 72.362,11.614 72.484,12.01C72.529,12.155 72.545,12.301 72.551,12.452L72.551,20.889C72.547,20.989 72.549,21.014 72.534,21.113C72.517,21.224 72.488,21.333 72.447,21.437C72.282,21.859 71.926,22.189 71.493,22.323C71.348,22.368 71.202,22.384 71.051,22.389L70.892,22.389C70.898,34.654 70.966,46.919 70.891,59.184C70.885,59.485 70.874,59.786 70.852,60.086L70.848,60.139L70.848,60.142L70.847,60.149L70.847,60.153L70.846,60.158L70.843,60.194L70.841,60.217L70.841,60.22L70.841,60.228L70.839,60.245L70.838,60.255L70.835,60.287L70.833,60.317L70.832,60.326L70.831,60.333L70.829,60.354L70.825,60.398L70.824,60.407L70.824,60.411C70.819,60.462 70.814,60.513 70.808,60.564L70.808,60.57L70.805,60.598L70.802,60.622L70.802,60.627L70.801,60.63L70.796,60.675L70.795,60.689L70.795,60.69C70.792,60.711 70.79,60.733 70.787,60.754L70.787,60.756L70.785,60.768L70.78,60.812L70.779,60.818L70.779,60.822L70.777,60.838L70.772,60.872L70.771,60.883L70.77,60.889L70.768,60.904L70.764,60.933L70.762,60.947L70.761,60.956L70.759,60.969L70.756,60.993L70.754,61.012L70.752,61.022L70.751,61.034L70.748,61.054L70.745,61.077L70.743,61.089L70.741,61.098L70.739,61.114L70.735,61.142L70.733,61.156L70.732,61.162L70.73,61.174L70.725,61.209L70.723,61.222L70.722,61.226L70.721,61.235L70.714,61.28L70.713,61.289L70.713,61.29C70.706,61.333 70.699,61.377 70.691,61.42L70.691,61.421L70.69,61.429L70.682,61.476L70.681,61.484L70.68,61.488L70.678,61.501L70.672,61.536L70.67,61.544C70.665,61.571 70.661,61.599 70.656,61.626L70.655,61.63L70.653,61.642L70.644,61.686L70.639,61.715L70.637,61.725L70.636,61.732C70.605,61.893 70.572,62.053 70.536,62.213C70.202,63.706 69.632,65.144 68.856,66.461L68.855,66.462L68.85,66.471L68.817,66.526L68.81,66.539L68.806,66.545L68.796,66.562L68.773,66.601L68.763,66.617L68.757,66.627L68.746,66.645L68.728,66.674L68.716,66.694L68.707,66.709L68.696,66.726L68.683,66.748L68.668,66.772L68.656,66.791L68.647,66.805L68.637,66.821L68.619,66.85L68.605,66.872L68.598,66.883L68.591,66.894L68.569,66.929L68.553,66.953L68.549,66.96L68.544,66.967L68.515,67.012L68.501,67.034L68.499,67.036C68.482,67.062 68.465,67.087 68.449,67.113L68.448,67.114L68.44,67.126L68.402,67.183L68.398,67.189L68.395,67.194L68.377,67.22L68.353,67.255L68.349,67.261L68.349,67.261L68.348,67.263C68.211,67.464 68.069,67.661 67.922,67.855L67.92,67.857L67.917,67.861L67.893,67.893L67.875,67.916L67.871,67.922L67.864,67.93L67.845,67.956L67.829,67.976L67.821,67.987L67.811,67.999L67.796,68.018L67.783,68.035L67.771,68.051L67.758,68.067L67.748,68.08L67.737,68.093L67.72,68.115L67.705,68.134L67.699,68.141L67.692,68.15L67.669,68.178L67.651,68.201L67.65,68.203L67.647,68.206C67.406,68.504 67.154,68.793 66.892,69.074L66.874,69.093L66.869,69.098L66.867,69.101L66.859,69.108C66.828,69.142 66.797,69.174 66.766,69.207L66.759,69.214L66.754,69.219L66.691,69.284C62.663,73.399 58.61,77.49 54.531,81.555C54.212,81.866 53.879,82.159 53.527,82.431C53.438,82.516 53.339,82.59 53.232,82.651C52.371,83.27 51.42,83.764 50.417,84.113C48.959,84.621 47.396,84.818 45.856,84.687C44.776,84.596 43.71,84.344 42.703,83.942C40.997,83.262 39.454,82.152 38.292,80.727C37.969,80.33 37.676,79.909 37.416,79.468ZM39.914,70.894C39.831,71.042 39.754,71.194 39.682,71.349C39.332,72.103 39.118,72.918 39.048,73.746C38.97,74.685 39.078,75.638 39.367,76.534C39.572,77.17 39.868,77.776 40.243,78.329C40.905,79.305 41.814,80.11 42.839,80.689C43.668,81.157 44.579,81.475 45.519,81.626C47.049,81.871 48.638,81.663 50.054,81.034L39.914,70.894ZM67.892,58.439L67.892,22.389C62.828,22.389 57.763,22.389 52.699,22.389L52.699,57.101L52.69,57.269C52.68,57.324 52.674,57.38 52.661,57.434C52.624,57.599 52.559,57.756 52.469,57.899C52.389,58.026 52.359,58.05 52.26,58.161C48.787,61.634 45.294,65.087 41.838,68.575L52.555,79.292C55.148,76.765 57.684,74.179 60.218,71.591C60.131,67.719 60.232,63.845 60.232,59.972C60.236,59.802 60.26,59.637 60.316,59.476C60.456,59.076 60.766,58.748 61.158,58.586C61.315,58.521 61.478,58.488 61.648,58.474C63.728,58.416 65.811,58.404 67.892,58.439ZM37.007,69.987L32.914,65.894C32.831,66.042 32.754,66.194 32.682,66.349C32.332,67.103 32.118,67.918 32.048,68.746C31.97,69.685 32.078,70.638 32.367,71.534C32.572,72.17 32.868,72.776 33.243,73.329C33.905,74.305 34.814,75.11 35.839,75.689C35.937,75.744 36.036,75.797 36.136,75.848C36.067,75.39 36.03,74.928 36.024,74.465C36.009,73.165 36.245,71.864 36.718,70.654C36.807,70.428 36.903,70.206 37.007,69.987ZM67.628,61.472L63.232,61.472L63.232,68.513C63.442,68.301 63.653,68.089 63.864,67.877L64.125,67.612L64.476,67.257L64.532,67.201C64.721,67.007 64.904,66.807 65.08,66.602C65.371,66.262 65.645,65.905 65.896,65.533L65.902,65.524L65.924,65.491L65.947,65.456L65.956,65.444C66.553,64.539 67.023,63.552 67.35,62.519C67.452,62.194 67.539,61.865 67.615,61.532L67.62,61.509L67.628,61.472ZM47.744,17.389L45.699,17.389L45.699,52.101L45.69,52.269C45.68,52.324 45.674,52.38 45.661,52.434C45.624,52.599 45.559,52.756 45.469,52.899C45.389,53.026 45.359,53.05 45.26,53.161C41.787,56.634 38.294,60.087 34.838,63.575L38.726,67.464C38.81,67.373 38.895,67.284 38.982,67.197L49.699,56.479L49.699,22.389L49.244,22.389C49.145,22.386 49.12,22.388 49.021,22.373C48.91,22.356 48.801,22.327 48.696,22.286C48.275,22.12 47.945,21.764 47.811,21.332C47.766,21.186 47.75,21.041 47.744,20.889L47.744,17.389ZM50.744,19.389L69.551,19.389L69.551,13.952L50.744,13.952C50.744,15.765 50.744,17.577 50.744,19.389ZM62.551,10.836L62.551,8.952L43.744,8.952L43.744,14.389L47.744,14.389L47.744,12.452C47.748,12.353 47.746,12.327 47.761,12.229C47.778,12.118 47.807,12.009 47.848,11.904C48.014,11.483 48.37,11.152 48.802,11.019C48.948,10.974 49.093,10.958 49.244,10.952C53.679,10.952 58.116,10.853 62.551,10.836Z" style="" fill="black"/></g></svg>
